<?xml version="1.0" standalone="no"?>
<!DOCTYPE svg PUBLIC "-//W3C//DTD SVG 20010904//EN"
 "http://www.w3.org/TR/2001/REC-SVG-20010904/DTD/svg10.dtd">
<svg version="1.0" xmlns="http://www.w3.org/2000/svg"
 width="512.000000pt" height="512.000000pt" viewBox="0 0 512.000000 512.000000"
 preserveAspectRatio="xMidYMid meet">
<metadata>
Created by potrace 1.14, written by Peter Selinger 2001-2017
</metadata>
<g transform="translate(0.000000,512.000000) scale(0.100000,-0.100000)"
fill="#000000" stroke="none">
<path d="M0 2560 l0 -2560 2560 0 2560 0 0 2560 0 2560 -2560 0 -2560 0 0
-2560z m2326 -124 c-26 -24 -66 -52 -87 -61 -21 -10 -39 -21 -39 -25 0 -3 133
-204 295 -446 l296 -439 -343 -3 c-318 -2 -344 -1 -356 15 -7 10 -140 224
-295 477 l-282 458 -3 -476 -2 -476 -295 0 -295 0 0 290 c0 289 0 290 -22 304
-13 8 -194 107 -403 220 l-380 206 1130 0 1130 -1 -49 -43z m1194 2 c45 -177
157 -315 322 -398 231 -116 475 -83 711 96 31 24 59 44 62 44 3 0 79 -99 171
-221 l166 -221 -34 -29 c-290 -250 -674 -347 -1058 -269 -419 85 -749 364
-886 746 -29 81 -64 234 -64 280 0 12 53 14 300 14 l299 0 11 -42z"/>
</g>
</svg>
